<?xml version="1.0" encoding="utf-8"?>
<!-- Generator: Adobe Illustrator 23.1.0, SVG Export Plug-In . SVG Version: 6.00 Build 0)  -->
<svg version="1.1" id="Слой_1" xmlns="http://www.w3.org/2000/svg" xmlns:xlink="http://www.w3.org/1999/xlink" x="0px" y="0px"
	 viewBox="0 0 160 160" style="enable-background:new 0 0 160 160;" xml:space="preserve">
<style type="text/css">
	.st0{fill:#848FAC;}
</style>
<g>
	<path class="st0" d="M90.5,158.9c-11.8,0-22.7-1.9-32.7-5.8c-9.9-3.9-18.6-9.4-26-16.5c-7.4-7.2-13.1-15.5-17.2-25
		c-4.1-9.5-6.1-20-6.1-31.6s2-22.1,6.1-31.6c4.1-9.5,9.9-17.8,17.3-25c7.5-7.2,16.1-12.7,26.1-16.5C68,3,78.9,1.1,90.7,1.1
		c12.6,0,24,2.2,34.4,6.5c10.4,4.3,19.1,10.7,26.3,19.2L133,44.1c-5.7-6-12-10.5-18.9-13.5c-6.9-3-14.2-4.5-22.1-4.5
		c-8,0-15.4,1.3-22,3.9c-6.7,2.6-12.4,6.4-17.3,11.2C47.8,46,44,51.7,41.2,58.3C38.4,64.9,37,72.1,37,80s1.4,15.1,4.2,21.7
		c2.8,6.6,6.6,12.3,11.5,17.1c4.9,4.8,10.7,8.5,17.3,11.2c6.6,2.6,14,3.9,22,3.9c7.9,0,15.3-1.5,22.1-4.5c6.9-3,13.2-7.6,18.9-13.7
		l18.4,17.3c-7.2,8.5-15.9,14.9-26.3,19.3C114.8,156.7,103.2,158.9,90.5,158.9z"/>
</g>
</svg>
